# xmcd CD database file
#
# Track frame offsets:
#	150
#	24787
#	45313
#	74012
#	92504
#	110250
#	131987
#	153588
#	179001
#	200997
#	227246
#
# Disc length: 3372 seconds
#
# Revision: 0
# Processed by: cddbd v1.5.2PL0 Copyright (c) Steve Scherf et al.
# Submitted via: CDex 1.51
#
DISCID=9a0d2a0b
DTITLE=Margareta Bengtson - En gång i Stockholm
DYEAR=2009
DGENRE=Jazz
TTITLE0=En gång in Stockholm
TTITLE1=Vad e de där
TTITLE2=Så tyst
TTITLE3=Varför ska ja va me
TTITLE4=Kaffe och bullar
TTITLE5=The midnight sun will never set
TTITLE6=Leaving London seeing Stockholm
TTITLE7=Å I ÅA Ä E Ö
TTITLE8=Nu löser solen sitt blonda hår
TTITLE9=Silhuetter
TTITLE10=Underbart är kort
EXTD=YEAR: 2009
EXTT0=
EXTT1=
EXTT2=
EXTT3=
EXTT4=
EXTT5=
EXTT6=
EXTT7=
EXTT8=
EXTT9=
EXTT10=
PLAYORDER=
